<mxfile host="app.diagrams.net" modified="2020-08-06T02:17:52.066Z" agent="5.0 (Windows NT 10.0; Win64; x64) AppleWebKit/537.36 (KHTML, like Gecko) Chrome/83.0.4103.106 Safari/537.36" etag="1H5iFG6HCFRekGkVnWqX" version="13.6.0" type="github">
  <diagram id="ogZR49KD6KhCGMxv0B3X" name="Page-1">
    <mxGraphModel dx="1102" dy="592" grid="1" gridSize="10" guides="1" tooltips="1" connect="1" arrows="1" fold="1" page="1" pageScale="1" pageWidth="827" pageHeight="1169" math="0" shadow="0">
      <root>
        <mxCell id="0" />
        <mxCell id="1" parent="0" />
        <mxCell id="oIG5HWOcIm4Gav6PHLE2-1" value="" style="shape=table;html=1;whiteSpace=wrap;startSize=0;container=1;collapsible=0;childLayout=tableLayout;swimlaneFillColor=none;fontStyle=0" vertex="1" parent="1">
          <mxGeometry x="180" y="320" width="800" height="120" as="geometry" />
        </mxCell>
        <mxCell id="oIG5HWOcIm4Gav6PHLE2-2" value="" style="shape=partialRectangle;html=1;whiteSpace=wrap;collapsible=0;dropTarget=0;pointerEvents=0;fillColor=none;top=0;left=0;bottom=0;right=0;points=[[0,0.5],[1,0.5]];portConstraint=eastwest;" vertex="1" parent="oIG5HWOcIm4Gav6PHLE2-1">
          <mxGeometry width="800" height="60" as="geometry" />
        </mxCell>
        <mxCell id="oIG5HWOcIm4Gav6PHLE2-3" value="20&lt;br&gt;SCI_TXD" style="shape=partialRectangle;html=1;whiteSpace=wrap;connectable=0;overflow=hidden;fillColor=#dae8fc;top=0;left=0;bottom=0;right=0;strokeColor=#6c8ebf;verticalAlign=middle;fontStyle=0;labelBackgroundColor=none;labelBorderColor=none;" vertex="1" parent="oIG5HWOcIm4Gav6PHLE2-2">
          <mxGeometry width="80" height="60" as="geometry" />
        </mxCell>
        <mxCell id="oIG5HWOcIm4Gav6PHLE2-4" value="2&lt;br&gt;Mic_Audio" style="shape=partialRectangle;html=1;whiteSpace=wrap;connectable=0;overflow=hidden;fillColor=#dae8fc;top=0;left=0;bottom=0;right=0;strokeColor=#6c8ebf;" vertex="1" parent="oIG5HWOcIm4Gav6PHLE2-2">
          <mxGeometry x="80" width="80" height="60" as="geometry" />
        </mxCell>
        <mxCell id="oIG5HWOcIm4Gav6PHLE2-5" value="4" style="shape=partialRectangle;html=1;whiteSpace=wrap;connectable=0;overflow=hidden;fillColor=none;top=0;left=0;bottom=0;right=0;" vertex="1" parent="oIG5HWOcIm4Gav6PHLE2-2">
          <mxGeometry x="160" width="80" height="60" as="geometry" />
        </mxCell>
        <mxCell id="oIG5HWOcIm4Gav6PHLE2-6" value="6" style="shape=partialRectangle;html=1;whiteSpace=wrap;connectable=0;overflow=hidden;fillColor=none;top=0;left=0;bottom=0;right=0;" vertex="1" parent="oIG5HWOcIm4Gav6PHLE2-2">
          <mxGeometry x="240" width="80" height="60" as="geometry" />
        </mxCell>
        <mxCell id="oIG5HWOcIm4Gav6PHLE2-7" value="8&lt;br&gt;Ground" style="shape=partialRectangle;html=1;whiteSpace=wrap;connectable=0;overflow=hidden;fillColor=#dae8fc;top=0;left=0;bottom=0;right=0;strokeColor=#6c8ebf;" vertex="1" parent="oIG5HWOcIm4Gav6PHLE2-2">
          <mxGeometry x="320" width="80" height="60" as="geometry" />
        </mxCell>
        <mxCell id="oIG5HWOcIm4Gav6PHLE2-8" value="10" style="shape=partialRectangle;html=1;whiteSpace=wrap;connectable=0;overflow=hidden;fillColor=none;top=0;left=0;bottom=0;right=0;" vertex="1" parent="oIG5HWOcIm4Gav6PHLE2-2">
          <mxGeometry x="400" width="80" height="60" as="geometry" />
        </mxCell>
        <mxCell id="oIG5HWOcIm4Gav6PHLE2-9" value="12" style="shape=partialRectangle;html=1;whiteSpace=wrap;connectable=0;overflow=hidden;fillColor=none;top=0;left=0;bottom=0;right=0;" vertex="1" parent="oIG5HWOcIm4Gav6PHLE2-2">
          <mxGeometry x="480" width="80" height="60" as="geometry" />
        </mxCell>
        <mxCell id="oIG5HWOcIm4Gav6PHLE2-10" value="14" style="shape=partialRectangle;html=1;whiteSpace=wrap;connectable=0;overflow=hidden;fillColor=none;top=0;left=0;bottom=0;right=0;" vertex="1" parent="oIG5HWOcIm4Gav6PHLE2-2">
          <mxGeometry x="560" width="80" height="60" as="geometry" />
        </mxCell>
        <mxCell id="oIG5HWOcIm4Gav6PHLE2-11" value="16&lt;br&gt;Speak+" style="shape=partialRectangle;html=1;whiteSpace=wrap;connectable=0;overflow=hidden;fillColor=none;top=0;left=0;bottom=0;right=0;" vertex="1" parent="oIG5HWOcIm4Gav6PHLE2-2">
          <mxGeometry x="640" width="80" height="60" as="geometry" />
        </mxCell>
        <mxCell id="oIG5HWOcIm4Gav6PHLE2-12" value="18&lt;br&gt;SCI_RTS" style="shape=partialRectangle;html=1;whiteSpace=wrap;connectable=0;overflow=hidden;fillColor=#dae8fc;top=0;left=0;bottom=0;right=0;strokeColor=#6c8ebf;" vertex="1" parent="oIG5HWOcIm4Gav6PHLE2-2">
          <mxGeometry x="720" width="80" height="60" as="geometry" />
        </mxCell>
        <mxCell id="oIG5HWOcIm4Gav6PHLE2-13" value="" style="shape=partialRectangle;html=1;whiteSpace=wrap;collapsible=0;dropTarget=0;pointerEvents=0;fillColor=none;top=0;left=0;bottom=0;right=0;points=[[0,0.5],[1,0.5]];portConstraint=eastwest;" vertex="1" parent="oIG5HWOcIm4Gav6PHLE2-1">
          <mxGeometry y="60" width="800" height="60" as="geometry" />
        </mxCell>
        <mxCell id="oIG5HWOcIm4Gav6PHLE2-14" value="19&lt;br&gt;SCI_RXD" style="shape=partialRectangle;html=1;whiteSpace=wrap;connectable=0;overflow=hidden;fillColor=#dae8fc;top=0;left=0;bottom=0;right=0;strokeColor=#6c8ebf;" vertex="1" parent="oIG5HWOcIm4Gav6PHLE2-13">
          <mxGeometry width="80" height="60" as="geometry" />
        </mxCell>
        <mxCell id="oIG5HWOcIm4Gav6PHLE2-15" value="1&lt;br&gt;Speak-" style="shape=partialRectangle;html=1;whiteSpace=wrap;connectable=0;overflow=hidden;fillColor=#dae8fc;top=0;left=0;bottom=0;right=0;strokeColor=#6c8ebf;" vertex="1" parent="oIG5HWOcIm4Gav6PHLE2-13">
          <mxGeometry x="80" width="80" height="60" as="geometry" />
        </mxCell>
        <mxCell id="oIG5HWOcIm4Gav6PHLE2-16" value="3&lt;br&gt;External_PTT" style="shape=partialRectangle;html=1;whiteSpace=wrap;connectable=0;overflow=hidden;fillColor=none;top=0;left=0;bottom=0;right=0;" vertex="1" parent="oIG5HWOcIm4Gav6PHLE2-13">
          <mxGeometry x="160" width="80" height="60" as="geometry" />
        </mxCell>
        <mxCell id="oIG5HWOcIm4Gav6PHLE2-17" value="5&lt;br&gt;TX_Audio" style="shape=partialRectangle;html=1;whiteSpace=wrap;connectable=0;overflow=hidden;fillColor=none;top=0;left=0;bottom=0;right=0;" vertex="1" parent="oIG5HWOcIm4Gav6PHLE2-13">
          <mxGeometry x="240" width="80" height="60" as="geometry" />
        </mxCell>
        <mxCell id="oIG5HWOcIm4Gav6PHLE2-18" value="7" style="shape=partialRectangle;html=1;whiteSpace=wrap;connectable=0;overflow=hidden;fillColor=none;top=0;left=0;bottom=0;right=0;" vertex="1" parent="oIG5HWOcIm4Gav6PHLE2-13">
          <mxGeometry x="320" width="80" height="60" as="geometry" />
        </mxCell>
        <mxCell id="oIG5HWOcIm4Gav6PHLE2-19" value="9" style="shape=partialRectangle;html=1;whiteSpace=wrap;connectable=0;overflow=hidden;fillColor=none;top=0;left=0;bottom=0;right=0;" vertex="1" parent="oIG5HWOcIm4Gav6PHLE2-13">
          <mxGeometry x="400" width="80" height="60" as="geometry" />
        </mxCell>
        <mxCell id="oIG5HWOcIm4Gav6PHLE2-20" value="11&lt;br&gt;RX_Audio" style="shape=partialRectangle;html=1;whiteSpace=wrap;connectable=0;overflow=hidden;fillColor=none;top=0;left=0;bottom=0;right=0;" vertex="1" parent="oIG5HWOcIm4Gav6PHLE2-13">
          <mxGeometry x="480" width="80" height="60" as="geometry" />
        </mxCell>
        <mxCell id="oIG5HWOcIm4Gav6PHLE2-21" value="13" style="shape=partialRectangle;html=1;whiteSpace=wrap;connectable=0;overflow=hidden;fillColor=none;top=0;left=0;bottom=0;right=0;" vertex="1" parent="oIG5HWOcIm4Gav6PHLE2-13">
          <mxGeometry x="560" width="80" height="60" as="geometry" />
        </mxCell>
        <mxCell id="oIG5HWOcIm4Gav6PHLE2-22" value="15" style="shape=partialRectangle;html=1;whiteSpace=wrap;connectable=0;overflow=hidden;fillColor=none;top=0;left=0;bottom=0;right=0;" vertex="1" parent="oIG5HWOcIm4Gav6PHLE2-13">
          <mxGeometry x="640" width="80" height="60" as="geometry" />
        </mxCell>
        <mxCell id="oIG5HWOcIm4Gav6PHLE2-23" value="17&lt;br&gt;SCI_CTS" style="shape=partialRectangle;html=1;whiteSpace=wrap;connectable=0;overflow=hidden;fillColor=#dae8fc;top=0;left=0;bottom=0;right=0;strokeColor=#6c8ebf;" vertex="1" parent="oIG5HWOcIm4Gav6PHLE2-13">
          <mxGeometry x="720" width="80" height="60" as="geometry" />
        </mxCell>
        <mxCell id="oIG5HWOcIm4Gav6PHLE2-24" value="录音卡ch0" style="ellipse;whiteSpace=wrap;html=1;labelBackgroundColor=none;fontSize=14;fillColor=#fff2cc;strokeColor=#d6b656;fontStyle=4" vertex="1" parent="1">
          <mxGeometry x="260" y="190" width="80" height="60" as="geometry" />
        </mxCell>
        <mxCell id="oIG5HWOcIm4Gav6PHLE2-25" value="录音卡ch0" style="ellipse;whiteSpace=wrap;html=1;labelBackgroundColor=none;fontSize=14;fillColor=#fff2cc;strokeColor=#d6b656;fontStyle=4" vertex="1" parent="1">
          <mxGeometry x="260" y="500" width="80" height="55" as="geometry" />
        </mxCell>
        <mxCell id="oIG5HWOcIm4Gav6PHLE2-26" value="" style="endArrow=classic;html=1;fontSize=14;entryX=0.5;entryY=1;entryDx=0;entryDy=0;exitX=0.151;exitY=-0.05;exitDx=0;exitDy=0;exitPerimeter=0;" edge="1" parent="1" source="oIG5HWOcIm4Gav6PHLE2-2" target="oIG5HWOcIm4Gav6PHLE2-24">
          <mxGeometry width="50" height="50" relative="1" as="geometry">
            <mxPoint x="300" y="320" as="sourcePoint" />
            <mxPoint x="310" y="410" as="targetPoint" />
          </mxGeometry>
        </mxCell>
        <mxCell id="oIG5HWOcIm4Gav6PHLE2-27" value="" style="endArrow=classic;html=1;fontSize=14;" edge="1" parent="1" target="oIG5HWOcIm4Gav6PHLE2-25">
          <mxGeometry width="50" height="50" relative="1" as="geometry">
            <mxPoint x="300" y="430" as="sourcePoint" />
            <mxPoint x="310" y="290" as="targetPoint" />
          </mxGeometry>
        </mxCell>
        <mxCell id="oIG5HWOcIm4Gav6PHLE2-28" value="USB" style="ellipse;whiteSpace=wrap;html=1;labelBackgroundColor=none;fontSize=14;fontStyle=4;fillColor=#d5e8d4;strokeColor=#82b366;" vertex="1" parent="1">
          <mxGeometry x="170" y="120" width="80" height="60" as="geometry" />
        </mxCell>
        <mxCell id="oIG5HWOcIm4Gav6PHLE2-29" value="USB" style="ellipse;whiteSpace=wrap;html=1;labelBackgroundColor=none;fontSize=14;fontStyle=4;fillColor=#d5e8d4;strokeColor=#82b366;" vertex="1" parent="1">
          <mxGeometry x="170" y="595" width="80" height="60" as="geometry" />
        </mxCell>
        <mxCell id="oIG5HWOcIm4Gav6PHLE2-30" value="USB" style="ellipse;whiteSpace=wrap;html=1;labelBackgroundColor=none;fontSize=14;fontStyle=4;fillColor=#d5e8d4;strokeColor=#82b366;" vertex="1" parent="1">
          <mxGeometry x="500" y="120" width="80" height="60" as="geometry" />
        </mxCell>
        <mxCell id="oIG5HWOcIm4Gav6PHLE2-31" value="USB" style="ellipse;whiteSpace=wrap;html=1;labelBackgroundColor=none;fontSize=14;fontStyle=4;fillColor=#d5e8d4;strokeColor=#82b366;" vertex="1" parent="1">
          <mxGeometry x="910" y="120" width="80" height="60" as="geometry" />
        </mxCell>
        <mxCell id="oIG5HWOcIm4Gav6PHLE2-32" value="USB" style="ellipse;whiteSpace=wrap;html=1;labelBackgroundColor=none;fontSize=14;fontStyle=4;fillColor=#d5e8d4;strokeColor=#82b366;" vertex="1" parent="1">
          <mxGeometry x="910" y="580" width="80" height="60" as="geometry" />
        </mxCell>
        <mxCell id="oIG5HWOcIm4Gav6PHLE2-33" value="" style="endArrow=classic;html=1;fontSize=16;entryX=0.5;entryY=1;entryDx=0;entryDy=0;exitX=0.034;exitY=-0.05;exitDx=0;exitDy=0;exitPerimeter=0;" edge="1" parent="1" source="oIG5HWOcIm4Gav6PHLE2-2" target="oIG5HWOcIm4Gav6PHLE2-28">
          <mxGeometry width="50" height="50" relative="1" as="geometry">
            <mxPoint x="440" y="390" as="sourcePoint" />
            <mxPoint x="490" y="340" as="targetPoint" />
          </mxGeometry>
        </mxCell>
        <mxCell id="oIG5HWOcIm4Gav6PHLE2-34" value="" style="endArrow=classic;html=1;fontSize=16;entryX=0.5;entryY=1;entryDx=0;entryDy=0;exitX=0.034;exitY=-0.05;exitDx=0;exitDy=0;exitPerimeter=0;" edge="1" parent="1">
          <mxGeometry width="50" height="50" relative="1" as="geometry">
            <mxPoint x="538.6" y="317" as="sourcePoint" />
            <mxPoint x="541.4" y="180" as="targetPoint" />
          </mxGeometry>
        </mxCell>
        <mxCell id="oIG5HWOcIm4Gav6PHLE2-35" value="" style="endArrow=classic;html=1;fontSize=16;entryX=0.5;entryY=1;entryDx=0;entryDy=0;exitX=0.034;exitY=-0.05;exitDx=0;exitDy=0;exitPerimeter=0;" edge="1" parent="1">
          <mxGeometry width="50" height="50" relative="1" as="geometry">
            <mxPoint x="948.5999999999999" y="317" as="sourcePoint" />
            <mxPoint x="951.4000000000001" y="180" as="targetPoint" />
          </mxGeometry>
        </mxCell>
        <mxCell id="oIG5HWOcIm4Gav6PHLE2-36" value="" style="endArrow=classic;html=1;fontSize=16;entryX=0.5;entryY=0;entryDx=0;entryDy=0;exitX=0.038;exitY=1.167;exitDx=0;exitDy=0;exitPerimeter=0;" edge="1" parent="1" source="oIG5HWOcIm4Gav6PHLE2-13" target="oIG5HWOcIm4Gav6PHLE2-29">
          <mxGeometry width="50" height="50" relative="1" as="geometry">
            <mxPoint x="220" y="450" as="sourcePoint" />
            <mxPoint x="490" y="340" as="targetPoint" />
          </mxGeometry>
        </mxCell>
        <mxCell id="oIG5HWOcIm4Gav6PHLE2-37" value="" style="endArrow=classic;html=1;fontSize=16;entryX=0.5;entryY=0;entryDx=0;entryDy=0;exitX=0.038;exitY=1.167;exitDx=0;exitDy=0;exitPerimeter=0;" edge="1" parent="1">
          <mxGeometry width="50" height="50" relative="1" as="geometry">
            <mxPoint x="949.9000000000001" y="440" as="sourcePoint" />
            <mxPoint x="949.5" y="584.98" as="targetPoint" />
          </mxGeometry>
        </mxCell>
      </root>
    </mxGraphModel>
  </diagram>
</mxfile>
